<svg xmlns="http://www.w3.org/2000/svg" height="24px" width="24px" fill="#041E49"><path d="M8 12.075Q8 13.725 9.175 14.9Q10.35 16.075 12 16.075Q13.65 16.075 14.825 14.9Q16 13.725 16 12.075Q16 10.425 14.825 9.25Q13.65 8.075 12 8.075Q10.35 8.075 9.175 9.25Q8 10.425 8 12.075ZM12 18.075Q12.325 18.075 12.625 18.05Q12.925 18.025 13.225 17.95L10.875 22Q7.1 21.575 4.55 18.762Q2 15.95 2 12.075Q2 11.025 2.2 10.037Q2.4 9.05 2.8 8.15L6.8 15.075Q7.575 16.425 8.95 17.25Q10.325 18.075 12 18.075ZM12 6.075Q10 6.075 8.45 7.237Q6.9 8.4 6.3 10.2L3.95 6.15Q5.325 4.3 7.412 3.187Q9.5 2.075 12 2.075Q14.475 2.075 16.55 3.162Q18.625 4.25 20 6.075ZM21.15 8.075Q21.575 9 21.788 10Q22 11 22 12.075Q22 15.95 19.462 18.75Q16.925 21.55 13.2 22L17.2 15.075Q17.575 14.425 17.788 13.662Q18 12.9 18 12.075Q18 10.9 17.587 9.887Q17.175 8.875 16.45 8.075Z"/></svg>
